<svg width="161" height="33" viewBox="0 0 161 33" fill="none" xmlns="http://www.w3.org/2000/svg">
<path d="M66.8387 10.2167V15.1519H74.9297V17.7006H66.8387V23.9101H63.7268V7.69119H75.959V10.2167H66.8387ZM84.0757 24.0723C82.783 24.0723 81.618 23.802 80.5807 23.2613C79.5434 22.7207 78.7296 21.9716 78.1391 21.0139C77.5646 20.0407 77.2773 18.944 77.2773 17.7237C77.2773 16.5035 77.5646 15.4145 78.1391 14.4568C78.7296 13.4991 79.5434 12.7499 80.5807 12.2093C81.618 11.6687 82.783 11.3984 84.0757 11.3984C85.3843 11.3984 86.5572 11.6687 87.5945 12.2093C88.6318 12.7499 89.4377 13.4991 90.0122 14.4568C90.6027 15.4145 90.8979 16.5035 90.8979 17.7237C90.8979 18.944 90.6027 20.0407 90.0122 21.0139C89.4377 21.9716 88.6318 22.7207 87.5945 23.2613C86.5572 23.802 85.3843 24.0723 84.0757 24.0723ZM84.0757 21.5931C85.1768 21.5931 86.0864 21.2378 86.8046 20.5273C87.5227 19.8168 87.8818 18.8822 87.8818 17.7237C87.8818 16.5653 87.5227 15.6307 86.8046 14.9202C86.0864 14.2097 85.1768 13.8544 84.0757 13.8544C82.9745 13.8544 82.0649 14.2097 81.3467 14.9202C80.6446 15.6307 80.2935 16.5653 80.2935 17.7237C80.2935 18.8822 80.6446 19.8168 81.3467 20.5273C82.0649 21.2378 82.9745 21.5931 84.0757 21.5931ZM105.378 11.5374L99.3931 24.9064C98.8345 26.2503 98.1563 27.1925 97.3584 27.7331C96.5604 28.2892 95.595 28.5673 94.4619 28.5673C93.8236 28.5673 93.1932 28.4668 92.5708 28.266C91.9484 28.0652 91.4375 27.7872 91.0385 27.4319L92.2354 25.3003C92.5229 25.5629 92.8581 25.7714 93.2411 25.9259C93.64 26.0804 94.039 26.1576 94.438 26.1576C94.9646 26.1576 95.3955 26.0263 95.7306 25.7637C96.0817 25.5011 96.4009 25.0609 96.6881 24.443L96.9035 23.9564L91.3258 11.5374H94.438L98.4595 20.6895L102.505 11.5374H105.378ZM111.733 11.3984C113.617 11.3984 115.053 11.8386 116.042 12.7191C117.048 13.5841 117.55 14.897 117.55 16.6579V23.9101H114.726V22.4041C114.359 22.9447 113.832 23.3618 113.146 23.6552C112.476 23.9333 111.662 24.0723 110.704 24.0723C109.747 24.0723 108.909 23.9178 108.191 23.6089C107.473 23.2845 106.914 22.8443 106.515 22.2882C106.132 21.7167 105.941 21.0757 105.941 20.3651C105.941 19.253 106.363 18.3648 107.209 17.7006C108.071 17.0209 109.42 16.6811 111.255 16.6811H114.558V16.4957C114.558 15.6307 114.287 14.9665 113.744 14.5031C113.218 14.0397 112.428 13.808 111.374 13.808C110.656 13.808 109.946 13.9162 109.244 14.1324C108.558 14.3487 107.975 14.6499 107.497 15.036L106.324 12.9276C106.994 12.4333 107.8 12.0549 108.741 11.7923C109.683 11.5297 110.68 11.3984 111.733 11.3984ZM111.327 21.9638C112.077 21.9638 112.739 21.8016 113.313 21.4773C113.904 21.1374 114.319 20.6586 114.558 20.0407V18.6042H111.47C109.747 18.6042 108.885 19.1526 108.885 20.2493C108.885 20.7745 109.1 21.1915 109.531 21.5004C109.962 21.8094 110.561 21.9638 111.327 21.9638ZM134.194 11.5374V22.0333C134.194 26.3893 131.896 28.5673 127.3 28.5673C126.071 28.5673 124.906 28.4128 123.805 28.1039C122.704 27.8104 121.795 27.3779 121.076 26.8063L122.417 24.6284C122.976 25.0763 123.678 25.4316 124.523 25.6942C125.385 25.9722 126.255 26.1112 127.133 26.1112C128.537 26.1112 129.566 25.8023 130.221 25.1844C130.875 24.5666 131.202 23.6243 131.202 22.3577V21.709C130.691 22.2496 130.069 22.6589 129.335 22.937C128.601 23.215 127.795 23.354 126.917 23.354C125.704 23.354 124.603 23.1069 123.614 22.6126C122.64 22.1029 121.866 21.3923 121.292 20.481C120.733 19.5696 120.454 18.527 120.454 17.353C120.454 16.1791 120.733 15.1442 121.292 14.2483C121.866 13.3369 122.64 12.6341 123.614 12.1398C124.603 11.6455 125.704 11.3984 126.917 11.3984C127.843 11.3984 128.681 11.5451 129.431 11.8386C130.197 12.1321 130.835 12.58 131.346 13.1825V11.5374H134.194ZM127.372 20.898C128.505 20.898 129.431 20.5736 130.149 19.9249C130.883 19.2607 131.25 18.4034 131.25 17.353C131.25 16.3181 130.883 15.4763 130.149 14.8275C129.431 14.1788 128.505 13.8544 127.372 13.8544C126.223 13.8544 125.282 14.1788 124.547 14.8275C123.829 15.4763 123.47 16.3181 123.47 17.353C123.47 18.4034 123.829 19.2607 124.547 19.9249C125.282 20.5736 126.223 20.898 127.372 20.898ZM150.145 17.7933C150.145 17.9941 150.129 18.2798 150.097 18.6505H140.067C140.243 19.5619 140.697 20.2879 141.432 20.8285C142.182 21.3537 143.107 21.6163 144.208 21.6163C145.613 21.6163 146.77 21.1683 147.679 20.2724L149.283 22.0565C148.709 22.7207 147.983 23.2227 147.105 23.5626C146.227 23.9024 145.238 24.0723 144.137 24.0723C142.732 24.0723 141.495 23.802 140.426 23.2613C139.357 22.7207 138.527 21.9716 137.937 21.0139C137.362 20.0407 137.075 18.944 137.075 17.7237C137.075 16.5189 137.354 15.4377 137.913 14.48C138.487 13.5068 139.277 12.7499 140.283 12.2093C141.288 11.6687 142.421 11.3984 143.682 11.3984C144.926 11.3984 146.036 11.6687 147.009 12.2093C147.998 12.7345 148.764 13.4837 149.307 14.4568C149.866 15.4145 150.145 16.5266 150.145 17.7933ZM143.682 13.7154C142.724 13.7154 141.91 13.9934 141.24 14.5495C140.586 15.0901 140.187 15.8161 140.043 16.7274H147.296C147.169 15.8315 146.778 15.1056 146.123 14.5495C145.469 13.9934 144.655 13.7154 143.682 13.7154ZM155.868 13.3446C156.73 12.0471 158.246 11.3984 160.416 11.3984V14.1556C160.161 14.1092 159.929 14.0861 159.722 14.0861C158.557 14.0861 157.647 14.4182 156.993 15.0824C156.339 15.7311 156.011 16.6734 156.011 17.9091V23.9101H153.019V11.5374H155.868V13.3446Z" fill="black"/>
<path fill-rule="evenodd" clip-rule="evenodd" d="M5.08934 32.7697C5.84192 33.2272 6.82704 32.9813 7.27097 32.2249L12.2551 23.7332C12.699 22.9769 13.6842 22.7308 14.4368 23.1884L18.0707 25.3977C18.1137 25.4303 18.1588 25.461 18.2059 25.4897L22.1384 27.8805C23.8359 28.9124 25.6302 29.5578 27.5219 29.8168C29.4029 30.0929 31.2516 30.0209 33.0675 29.6008C34.8555 29.1872 36.5334 28.4371 38.1009 27.3501C39.6514 26.2527 40.9478 24.8602 41.99 23.1727L42.7955 21.8687L43.3194 21.0778L45.4675 17.6004L47.6153 14.123L47.0916 14.9138L52.9222 4.97971C53.3515 4.2481 53.1131 3.31062 52.3854 2.86804L48.0465 0.23029C47.2938 -0.22724 46.3085 0.0187704 45.8647 0.775093L40.8805 9.26686C40.4367 10.0232 39.4514 10.2692 38.6987 9.81163L35.065 7.60238C35.0219 7.56975 34.9769 7.53902 34.9297 7.51038L30.9971 5.11949C29.2998 4.08763 27.5055 3.44223 25.6138 3.18321C23.7327 2.90718 21.8842 2.9792 20.0683 3.39925C18.2801 3.81279 16.6022 4.56303 15.0347 5.64996C13.4844 6.74732 12.188 8.13982 11.1456 9.82737C10.7008 10.5473 9.75106 10.7733 9.02493 10.3319L8.26163 9.86782C7.52081 9.41745 6.55182 9.64798 6.09808 10.3826L3.44407 14.6792C2.991 15.4127 3.22323 16.3713 3.96294 16.821L4.73489 17.2903C5.46291 17.7329 5.70131 18.6703 5.27188 19.4019L0.213416 28.0204C-0.215978 28.7519 0.022417 29.6893 0.750433 30.1319L5.08934 32.7697ZM28.3657 13.0863L26.7013 12.0744C25.947 11.6158 25.1596 11.3247 24.3397 11.2014C23.5475 11.0715 22.7639 11.0993 21.9891 11.2846C21.2419 11.4636 20.5311 11.7933 19.8567 12.2746C19.1928 12.7385 18.6292 13.3454 18.166 14.0955C17.721 14.816 17.9491 15.7575 18.6757 16.1992L24.6363 19.823C24.6829 19.8513 24.7275 19.8816 24.77 19.9137L26.4344 20.9257C27.1888 21.3843 27.976 21.6754 28.7959 21.7987C29.5882 21.9286 30.3716 21.9007 31.1465 21.7154C31.8938 21.5364 32.6046 21.2067 33.2789 20.7254C33.9428 20.2616 34.5064 19.6546 34.9697 18.9045C35.4147 18.1841 35.1867 17.2426 34.4598 16.8008L28.4994 13.1771C28.4528 13.1488 28.4081 13.1184 28.3657 13.0863Z" fill="#0E6FFE"/>
</svg>
